<svg width="213" height="159" viewBox="0 0 213 159" fill="none" xmlns="http://www.w3.org/2000/svg">
<g filter="url(#filter0_d_1629_6767)">
<path d="M53.5703 100.263H96.7138C98.2547 100.263 99.7458 99.7179 100.923 98.7238C102.1 97.7296 102.888 96.3508 103.145 94.8316L114.613 27.4271C114.872 25.9088 115.659 24.531 116.837 23.5377C118.014 22.5444 119.505 21.9997 121.045 22H125.324" fill="white"/>
<path d="M53.5703 100.263H96.7138C98.2547 100.263 99.7458 99.7179 100.923 98.7238C102.1 97.7296 102.888 96.3508 103.145 94.8316L114.613 27.4271C114.872 25.9088 115.659 24.531 116.837 23.5377C118.014 22.5444 119.505 21.9997 121.045 22H125.324" stroke="#0E8BFF" stroke-width="7" stroke-linecap="round" stroke-linejoin="round"/>
<path d="M61.7245 110.047C62.047 110.047 62.3623 110.143 62.6305 110.322C62.8987 110.501 63.1077 110.756 63.2311 111.054C63.3546 111.352 63.3868 111.679 63.3239 111.996C63.261 112.312 63.1057 112.603 62.8776 112.831C62.6496 113.059 62.359 113.214 62.0426 113.277C61.7263 113.34 61.3984 113.308 61.1004 113.184C60.8025 113.061 60.5478 112.852 60.3686 112.584C60.1894 112.315 60.0938 112 60.0938 111.678C60.0938 111.245 60.2656 110.83 60.5714 110.525C60.8772 110.219 61.292 110.047 61.7245 110.047Z" fill="white" stroke="#0E8BFF" stroke-width="7" stroke-linecap="round" stroke-linejoin="round"/>
<path d="M94.3397 110.047C94.6623 110.047 94.9776 110.143 95.2457 110.322C95.5139 110.501 95.7229 110.756 95.8464 111.054C95.9698 111.352 96.0021 111.679 95.9392 111.996C95.8762 112.312 95.7209 112.603 95.4929 112.831C95.2648 113.059 94.9742 113.214 94.6579 113.277C94.3415 113.34 94.0137 113.308 93.7157 113.184C93.4177 113.061 93.163 112.852 92.9838 112.584C92.8046 112.315 92.709 112 92.709 111.678C92.709 111.245 92.8808 110.83 93.1866 110.525C93.4924 110.219 93.9072 110.047 94.3397 110.047Z" fill="white"/>
<path d="M94.3397 110.047C94.6623 110.047 94.9776 110.143 95.2457 110.322C95.5139 110.501 95.7229 110.756 95.8464 111.054C95.9698 111.352 96.0021 111.679 95.9392 111.996C95.8762 112.312 95.7209 112.603 95.4929 112.831C95.2648 113.059 94.9742 113.214 94.6579 113.277C94.3415 113.34 94.0137 113.308 93.7157 113.184C93.4177 113.061 93.163 112.852 92.9838 112.584C92.8046 112.315 92.709 112 92.709 111.678C92.709 111.245 92.8808 110.83 93.1866 110.525C93.4924 110.219 93.9072 110.047 94.3397 110.047" stroke="#0E8BFF" stroke-width="7" stroke-linecap="round" stroke-linejoin="round"/>
<path d="M105.551 80.695H53.0577C50.1488 80.6947 47.3234 79.7222 45.0306 77.9321C42.7377 76.1419 41.109 73.6368 40.4031 70.8148L34.0975 45.5925C33.9772 45.1115 33.9681 44.6094 34.071 44.1243C34.1739 43.6393 34.386 43.1841 34.6912 42.7933C34.9964 42.4026 35.3867 42.0866 35.8324 41.8693C36.2781 41.6521 36.7675 41.5393 37.2633 41.5396H112.208" fill="#0E8BFF"/>
<path d="M105.551 80.695H53.0577C50.1488 80.6947 47.3234 79.7222 45.0306 77.9321C42.7377 76.1419 41.109 73.6368 40.4031 70.8148L34.0975 45.5925C33.9772 45.1115 33.9681 44.6094 34.071 44.1243C34.1739 43.6393 34.386 43.1841 34.6912 42.7933C34.9964 42.4026 35.3867 42.0866 35.8324 41.8693C36.2781 41.6521 36.7675 41.5393 37.2633 41.5396H112.208" stroke="#0E8BFF" stroke-width="7" stroke-linecap="round" stroke-linejoin="round"/>
<g filter="url(#filter1_d_1629_6767)">
<path d="M125 39H150C151.105 39 152 39.8954 152 41C152 42.1046 151.105 43 150 43H125V39Z" fill="#0E8BFF"/>
</g>
<g filter="url(#filter2_d_1629_6767)">
<path d="M122 52H167C168.105 52 169 52.8954 169 54C169 55.1046 168.105 56 167 56H122V52Z" fill="#0E8BFF"/>
</g>
<g filter="url(#filter3_d_1629_6767)">
<path d="M119 65H181C182.105 65 183 65.8954 183 67C183 68.1046 182.105 69 181 69H119V65Z" fill="#0E8BFF"/>
</g>
</g>
<defs>
<filter id="filter0_d_1629_6767" x="0.5" y="0.5" width="212.5" height="158.309" filterUnits="userSpaceOnUse" color-interpolation-filters="sRGB">
<feFlood flood-opacity="0" result="BackgroundImageFix"/>
<feColorMatrix in="SourceAlpha" type="matrix" values="0 0 0 0 0 0 0 0 0 0 0 0 0 0 0 0 0 0 127 0" result="hardAlpha"/>
<feOffset dy="12"/>
<feGaussianBlur stdDeviation="15"/>
<feColorMatrix type="matrix" values="0 0 0 0 0.149531 0 0 0 0 0.183606 0 0 0 0 0.3625 0 0 0 0.04 0"/>
<feBlend mode="normal" in2="BackgroundImageFix" result="effect1_dropShadow_1629_6767"/>
<feBlend mode="normal" in="SourceGraphic" in2="effect1_dropShadow_1629_6767" result="shape"/>
</filter>
<filter id="filter1_d_1629_6767" x="95" y="21" width="87" height="64" filterUnits="userSpaceOnUse" color-interpolation-filters="sRGB">
<feFlood flood-opacity="0" result="BackgroundImageFix"/>
<feColorMatrix in="SourceAlpha" type="matrix" values="0 0 0 0 0 0 0 0 0 0 0 0 0 0 0 0 0 0 127 0" result="hardAlpha"/>
<feOffset dy="12"/>
<feGaussianBlur stdDeviation="15"/>
<feColorMatrix type="matrix" values="0 0 0 0 0.149531 0 0 0 0 0.183606 0 0 0 0 0.3625 0 0 0 0.04 0"/>
<feBlend mode="normal" in2="BackgroundImageFix" result="effect1_dropShadow_1629_6767"/>
<feBlend mode="normal" in="SourceGraphic" in2="effect1_dropShadow_1629_6767" result="shape"/>
</filter>
<filter id="filter2_d_1629_6767" x="92" y="34" width="107" height="64" filterUnits="userSpaceOnUse" color-interpolation-filters="sRGB">
<feFlood flood-opacity="0" result="BackgroundImageFix"/>
<feColorMatrix in="SourceAlpha" type="matrix" values="0 0 0 0 0 0 0 0 0 0 0 0 0 0 0 0 0 0 127 0" result="hardAlpha"/>
<feOffset dy="12"/>
<feGaussianBlur stdDeviation="15"/>
<feColorMatrix type="matrix" values="0 0 0 0 0.149531 0 0 0 0 0.183606 0 0 0 0 0.3625 0 0 0 0.04 0"/>
<feBlend mode="normal" in2="BackgroundImageFix" result="effect1_dropShadow_1629_6767"/>
<feBlend mode="normal" in="SourceGraphic" in2="effect1_dropShadow_1629_6767" result="shape"/>
</filter>
<filter id="filter3_d_1629_6767" x="89" y="47" width="124" height="64" filterUnits="userSpaceOnUse" color-interpolation-filters="sRGB">
<feFlood flood-opacity="0" result="BackgroundImageFix"/>
<feColorMatrix in="SourceAlpha" type="matrix" values="0 0 0 0 0 0 0 0 0 0 0 0 0 0 0 0 0 0 127 0" result="hardAlpha"/>
<feOffset dy="12"/>
<feGaussianBlur stdDeviation="15"/>
<feColorMatrix type="matrix" values="0 0 0 0 0.149531 0 0 0 0 0.183606 0 0 0 0 0.3625 0 0 0 0.04 0"/>
<feBlend mode="normal" in2="BackgroundImageFix" result="effect1_dropShadow_1629_6767"/>
<feBlend mode="normal" in="SourceGraphic" in2="effect1_dropShadow_1629_6767" result="shape"/>
</filter>
</defs>
</svg>
