<svg width="247" height="154" viewBox="0 0 247 154" fill="none" xmlns="http://www.w3.org/2000/svg">
<g clip-path="url(#clip0_1861_9045)" filter="url(#filter0_d_1861_9045)">
<path d="M129.252 57.6718L54.734 27.6247C53.7929 27.2452 52.7396 27.2551 51.8058 27.6523C50.872 28.0494 50.1342 28.8012 49.7547 29.7423L31.1541 75.8725C30.7746 76.8137 30.7845 77.867 31.1817 78.8008C31.5788 79.7346 32.3306 80.4724 33.2718 80.8518L107.79 110.899C108.731 111.279 109.784 111.269 110.718 110.871C111.652 110.474 112.39 109.722 112.769 108.781L131.37 62.6511C131.749 61.71 131.739 60.6567 131.342 59.7229C130.945 58.7891 130.193 58.0513 129.252 57.6718ZM56.1077 44.6802C55.4059 44.3972 54.8037 43.9125 54.3774 43.2873C53.9511 42.6621 53.7197 41.9245 53.7126 41.1678C53.7055 40.4111 53.9229 39.6693 54.3374 39.0361C54.7518 38.403 55.3447 37.907 56.0411 37.6108C56.7375 37.3147 57.506 37.2317 58.2496 37.3723C58.9931 37.5129 59.6783 37.8709 60.2184 38.4009C60.7585 38.9309 61.1293 39.6092 61.2839 40.35C61.4385 41.0908 61.37 41.8607 61.087 42.5626C60.7075 43.5037 59.9697 44.2555 59.0359 44.6526C58.1021 45.0498 57.0488 45.0597 56.1077 44.6802ZM76.9695 79.9073C74.864 79.0583 73.0576 77.6041 71.7786 75.7284C70.4996 73.8528 69.8055 71.6401 69.7842 69.37C69.7628 67.0999 70.415 64.8744 71.6584 62.975C72.9019 61.0757 74.6806 59.5876 76.7697 58.6992C78.8588 57.8107 81.1644 57.5616 83.3951 57.9835C85.6257 58.4054 87.6811 59.4793 89.3015 61.0694C90.9218 62.6595 92.0342 64.6943 92.498 66.9166C92.9619 69.1389 92.7563 71.4488 91.9073 73.5543C90.7689 76.3776 88.5556 78.6331 85.7542 79.8245C82.9528 81.0159 79.7928 81.0457 76.9695 79.9073ZM103.554 100.94C102.853 100.657 102.251 100.173 101.824 99.5475C101.398 98.9223 101.167 98.1847 101.159 97.428C101.152 96.6713 101.37 95.9295 101.784 95.2964C102.199 94.6632 102.792 94.1672 103.488 93.8711C104.184 93.5749 104.953 93.4919 105.696 93.6325C106.44 93.7732 107.125 94.1311 107.665 94.6611C108.205 95.1912 108.576 95.8694 108.731 96.6102C108.885 97.351 108.817 98.1209 108.534 98.8228C108.154 99.7639 107.417 100.516 106.483 100.913C105.549 101.31 104.496 101.32 103.554 100.94Z" fill="#0E8BFF"/>
</g>
<g clip-path="url(#clip1_1861_9045)" filter="url(#filter1_d_1861_9045)">
<path d="M203.157 18.5058L144.357 34.2615C143.614 34.4604 142.981 34.9463 142.597 35.6121C142.212 36.2779 142.108 37.0691 142.307 37.8118L152.06 74.2123C152.259 74.9549 152.745 75.588 153.411 75.9724C154.077 76.3569 154.868 76.461 155.611 76.262L214.412 60.5064C215.154 60.3074 215.787 59.8216 216.172 59.1558C216.556 58.49 216.66 57.6987 216.461 56.9561L206.708 20.5556C206.509 19.813 206.023 19.1798 205.357 18.7954C204.691 18.411 203.9 18.3068 203.157 18.5058ZM152.958 43.9611C152.404 44.1095 151.819 44.0903 151.276 43.906C150.733 43.7217 150.257 43.3806 149.908 42.9257C149.559 42.4709 149.352 41.9227 149.315 41.3506C149.277 40.7785 149.41 40.2081 149.697 39.7116C149.984 39.2151 150.411 38.8147 150.925 38.5612C151.44 38.3076 152.018 38.2122 152.586 38.287C153.154 38.3619 153.688 38.6036 154.119 38.9816C154.55 39.3596 154.859 39.857 155.008 40.4108C155.207 41.1534 155.102 41.9446 154.718 42.6104C154.334 43.2763 153.7 43.7621 152.958 43.9611ZM181.635 55.784C179.974 56.2292 178.217 56.1717 176.589 55.6189C174.96 55.066 173.532 54.0425 172.485 52.678C171.438 51.3134 170.819 49.669 170.706 47.9527C170.594 46.2364 170.993 44.5253 171.853 43.0357C172.713 41.5461 173.995 40.3451 175.538 39.5843C177.08 38.8236 178.814 38.5374 180.519 38.7619C182.224 38.9864 183.825 39.7115 185.118 40.8456C186.411 41.9797 187.339 43.4717 187.784 45.1331C188.381 47.361 188.069 49.7347 186.915 51.7322C185.762 53.7296 183.863 55.1871 181.635 55.784ZM207.311 56.4069C206.757 56.5553 206.172 56.5361 205.629 56.3518C205.086 56.1675 204.61 55.8264 204.261 55.3715C203.912 54.9167 203.706 54.3685 203.668 53.7964C203.631 53.2243 203.764 52.6539 204.05 52.1574C204.337 51.6609 204.764 51.2605 205.279 51.007C205.793 50.7534 206.371 50.658 206.939 50.7328C207.507 50.8076 208.041 51.0494 208.472 51.4274C208.903 51.8054 209.212 52.3028 209.361 52.8566C209.56 53.5992 209.455 54.3904 209.071 55.0562C208.687 55.722 208.054 56.2079 207.311 56.4069Z" fill="#0E8BFF"/>
</g>
<defs>
<filter id="filter0_d_1861_9045" x="-6" y="-6" width="174.524" height="174.524" filterUnits="userSpaceOnUse" color-interpolation-filters="sRGB">
<feFlood flood-opacity="0" result="BackgroundImageFix"/>
<feColorMatrix in="SourceAlpha" type="matrix" values="0 0 0 0 0 0 0 0 0 0 0 0 0 0 0 0 0 0 127 0" result="hardAlpha"/>
<feOffset dy="12"/>
<feGaussianBlur stdDeviation="15"/>
<feColorMatrix type="matrix" values="0 0 0 0 0.149531 0 0 0 0 0.183606 0 0 0 0 0.3625 0 0 0 0.04 0"/>
<feBlend mode="normal" in2="BackgroundImageFix" result="effect1_dropShadow_1861_9045"/>
<feBlend mode="normal" in="SourceGraphic" in2="effect1_dropShadow_1861_9045" result="shape"/>
</filter>
<filter id="filter1_d_1861_9045" x="108.556" y="-11.4448" width="141.657" height="141.657" filterUnits="userSpaceOnUse" color-interpolation-filters="sRGB">
<feFlood flood-opacity="0" result="BackgroundImageFix"/>
<feColorMatrix in="SourceAlpha" type="matrix" values="0 0 0 0 0 0 0 0 0 0 0 0 0 0 0 0 0 0 127 0" result="hardAlpha"/>
<feOffset dy="12"/>
<feGaussianBlur stdDeviation="15"/>
<feColorMatrix type="matrix" values="0 0 0 0 0.149531 0 0 0 0 0.183606 0 0 0 0 0.3625 0 0 0 0.04 0"/>
<feBlend mode="normal" in2="BackgroundImageFix" result="effect1_dropShadow_1861_9045"/>
<feBlend mode="normal" in="SourceGraphic" in2="effect1_dropShadow_1861_9045" result="shape"/>
</filter>
<clipPath id="clip0_1861_9045">
<rect width="88" height="88" fill="white" transform="translate(56.9092 12) rotate(21.9603)"/>
</clipPath>
<clipPath id="clip1_1861_9045">
<rect width="66.6727" height="66.6727" fill="white" transform="translate(138.556 23.8115) rotate(-15)"/>
</clipPath>
</defs>
</svg>
