<svg width="93" height="93" viewBox="0 0 93 93" fill="none" xmlns="http://www.w3.org/2000/svg">
<path d="M73.8507 59.8098C72.0339 60.2924 70.1323 60.3636 68.2845 60.0182C66.4366 59.6728 64.6891 58.9196 63.1693 57.8134C61.6494 56.7071 60.3955 55.2758 59.4988 53.6236C58.6022 51.9714 58.0854 50.14 57.9861 48.2628C57.8516 45.311 58.7393 42.4031 60.4996 40.0297C62.2598 37.6563 64.7848 35.9627 67.6485 35.2346L75.408 33.1555C75.8385 33.0401 76.2056 32.7585 76.4284 32.3725C76.6513 31.9865 76.7117 31.5277 76.5963 31.0972C75.9091 28.5324 74.639 23.7923 74.639 23.7923C74.0543 21.6446 72.6446 19.815 70.7169 18.702C68.7893 17.5891 66.4999 17.283 64.3476 17.8506C49.8028 21.7479 93.1127 10.143 18.8949 30.0296C18.2491 30.2026 17.5611 30.112 16.9821 29.7778C16.4031 29.4435 15.9806 28.8929 15.8075 28.2471C15.6345 27.6013 15.7251 26.9132 16.0594 26.3342C16.3937 25.7552 16.9443 25.3327 17.59 25.1597L60.6077 13.6331C60.823 13.5754 61.0065 13.4346 61.118 13.2416C61.2294 13.0486 61.2596 12.8192 61.2019 12.604L61.0192 11.9222C59.8187 7.44185 53.7472 5.17142 47.4812 6.85039L11.7684 16.4196C8.75474 17.2271 6.18526 19.1988 4.62525 21.9008C3.06525 24.6028 2.64251 27.8138 3.45002 30.8275L16.9339 81.1501C17.7414 84.1638 19.7131 86.7333 22.4151 88.2933C25.1171 89.8533 28.3281 90.2761 31.3418 89.4685L80.0411 76.4196C82.1938 75.8428 84.0291 74.4345 85.1434 72.5045C86.2577 70.5745 86.5596 68.2809 85.9828 66.1282L83.808 58.0117C83.7503 57.7964 83.6095 57.6129 83.4165 57.5015C83.2235 57.39 82.9942 57.3598 82.7789 57.4175L73.8507 59.8098Z" fill="#0E8BFF"/>
<path d="M78.3709 37.7205L68.6311 40.3303C66.6937 40.8494 65.0419 42.1169 64.039 43.8539C63.0362 45.5909 62.7644 47.6551 63.2835 49.5925C63.8026 51.5299 65.0701 53.1817 66.8071 54.1845C68.5441 55.1874 70.6084 55.4592 72.5457 54.94L82.2856 52.3303C83.3801 51.8294 84.2593 50.9535 84.7643 49.8609C85.2693 48.7683 85.3667 47.5311 85.039 46.3729L83.7341 41.503C83.4388 40.3361 82.7358 39.3134 81.7522 38.6196C80.7686 37.9259 79.5692 37.607 78.3709 37.7205Z" fill="#0E8BFF"/>
</svg>
