<svg width="34" height="35" viewBox="0 0 34 35" fill="none" xmlns="http://www.w3.org/2000/svg">
<path d="M20.7742 9.89916H14.3042V4.50747C14.3042 3.6495 14.645 2.82666 15.2517 2.21997C15.8584 1.61329 16.6812 1.27246 17.5392 1.27246C18.3972 1.27246 19.22 1.61329 19.8267 2.21997C20.4334 2.82666 20.7742 3.6495 20.7742 4.50747V9.89916Z" stroke="white" stroke-width="1.5" stroke-linecap="round" stroke-linejoin="round"/>
<path d="M5.67761 27.1524V30.3874L3.52093 33.6224L1.36426 30.3874V14.2123C1.36426 13.6404 1.59148 13.0918 1.99593 12.6873C2.40039 12.2829 2.94895 12.0557 3.52093 12.0557C4.09292 12.0557 4.64148 12.2829 5.04593 12.6873C5.45039 13.0918 5.67761 13.6404 5.67761 14.2123V20.6824" stroke="white" stroke-width="1.5" stroke-linecap="round" stroke-linejoin="round"/>
<path d="M1.36426 27.1523H7.83428L20.7743 9.89893L31.158 25.0028C31.5554 25.5811 31.7139 26.2906 31.6003 26.9831C31.4867 27.6755 31.1098 28.2971 30.5484 28.7181C30.2586 28.9356 29.9282 29.0929 29.5766 29.1808C29.2251 29.2687 28.8595 29.2855 28.5014 29.23C28.1433 29.1745 27.7999 29.048 27.4915 28.8579C27.183 28.6677 26.9157 28.4178 26.7052 28.1228L17.1526 14.7284" stroke="white" stroke-width="1.5" stroke-linecap="round" stroke-linejoin="round"/>
<path d="M14.3043 9.89893L5.67773 20.6823" stroke="white" stroke-width="1.5" stroke-linecap="round" stroke-linejoin="round"/>
<path d="M30.5483 28.7183L32.636 31.4659" stroke="white" stroke-width="1.5" stroke-linecap="round" stroke-linejoin="round"/>
<path d="M1.36426 20.6826H5.67761" stroke="white" stroke-width="1.5" stroke-linecap="round" stroke-linejoin="round"/>
</svg>
