<svg width="511" height="214" viewBox="0 0 511 214" fill="none" xmlns="http://www.w3.org/2000/svg">
<path d="M63.3154 124.404C62.584 127.225 61.3825 130.15 59.7108 133.18C58.1436 136.21 56.1584 139.084 53.7554 141.8C50.203 145.875 46.285 148.591 42.0013 149.95C37.7176 151.308 33.8518 151.987 30.4039 151.987C20.0603 151.987 12.381 148.017 7.3659 140.076C2.4553 132.136 0 120.695 0 105.754C0 97.9182 0.679125 90.6045 2.03738 83.8133C3.50011 77.022 5.433 71.1188 7.83606 66.1038C10.2391 60.9842 13.0601 56.9617 16.299 54.0362C19.6424 51.1108 23.1947 49.648 26.9561 49.648H30.2472C32.1279 49.648 33.6951 49.9092 34.9488 50.4316C36.3071 50.954 37.5609 51.6332 38.7101 52.469C39.9639 53.2004 41.2177 54.0362 42.4715 54.9766C43.7252 55.8124 45.2924 56.6482 47.1731 57.4841C50.3075 58.8424 52.3971 61.3499 53.4419 65.0067C54.4867 68.5591 55.0092 72.3726 55.0092 76.4474C55.0092 77.9101 54.9569 79.4251 54.8524 80.9923C54.8524 82.5595 54.5912 84.0222 54.0688 85.3805C53.5464 86.6342 52.7106 87.7313 51.5613 88.6716C50.412 89.6119 48.7403 90.1866 46.5462 90.3955C43.5163 90.3955 41.4266 89.3507 40.2774 87.2611C39.1281 85.1715 38.5534 82.9252 38.5534 80.5221C38.5534 79.1639 38.6579 77.5444 38.8669 75.6637C39.0758 73.6786 39.1803 71.6935 39.1803 69.7083C39.1803 67.0963 38.7624 64.7977 37.9265 62.8126C37.1952 60.8275 35.628 59.8349 33.2249 59.8349C29.3591 59.8349 26.1724 61.2454 23.6649 64.0664C21.2618 66.7829 19.329 70.283 17.8662 74.5667C16.508 78.8504 15.5154 83.6043 14.8885 88.8283C14.3661 94.0524 14.1049 99.1197 14.1049 104.03C14.1049 109.045 14.2094 113.695 14.4184 117.978C14.7318 122.158 15.4109 125.919 16.4557 129.262C17.5005 132.606 19.0155 135.531 21.0006 138.039C22.9858 140.442 25.7545 142.427 29.3069 143.994C30.7696 144.621 32.3891 144.935 34.1652 144.935C36.7773 144.935 39.2325 144.36 41.5311 143.211C43.9342 141.957 46.0238 140.337 47.8 138.352C49.5762 136.367 50.9866 134.121 52.0314 131.613C53.0763 129.001 53.5987 126.337 53.5987 123.62C53.5987 120.904 54.0688 118.501 55.0092 116.411C56.054 114.322 57.7257 113.277 60.0242 113.277C61.6959 113.277 62.793 113.799 63.3154 114.844C63.8378 115.889 64.099 117.09 64.099 118.449C64.099 120.852 63.8378 122.837 63.3154 124.404Z" fill="#0E8BFF"/>
<path d="M128.735 125.031C128.631 126.494 128.161 128.583 127.325 131.3C126.594 133.912 125.444 136.524 123.877 139.136C122.414 141.643 120.481 143.89 118.078 145.875C115.78 147.756 112.959 148.696 109.615 148.696C106.377 148.696 103.765 147.756 101.779 145.875C99.8988 143.994 98.436 141.434 97.3912 138.196C96.4509 134.852 95.824 130.882 95.5106 126.285C95.3016 121.688 95.1971 116.672 95.1971 111.239C95.1971 110.299 95.1971 109.15 95.1971 107.792C95.1971 106.329 95.2494 105.075 95.3539 104.03C94.1001 106.329 92.8463 109.254 91.5925 112.807C90.3388 116.255 89.1895 119.964 88.1447 123.934C87.2043 127.904 86.4207 131.979 85.7939 136.158C85.167 140.233 84.8013 144.099 84.6968 147.756C83.652 147.964 82.5027 148.226 81.2489 148.539C80.0996 148.853 78.7414 149.009 77.1742 149.009C76.5473 149.009 75.8159 148.957 74.9801 148.853C74.1442 148.748 73.3084 148.539 72.4725 148.226C71.6367 147.912 70.9053 147.494 70.2785 146.972C69.756 146.345 69.4948 145.561 69.4948 144.621C69.4948 144.412 69.6516 143.942 69.965 143.211C70.3829 142.479 70.5919 141.016 70.5919 138.822V48.7077C70.5919 47.245 70.3829 46.2524 69.965 45.73C69.6516 45.2076 69.4948 44.5807 69.4948 43.8493C69.4948 43.4314 69.8605 43.118 70.5919 42.909C71.3233 42.5956 72.1591 42.3866 73.0994 42.2821C74.0398 42.0732 74.9801 41.9687 75.9204 41.9687C76.9652 41.8642 77.8011 41.812 78.428 41.812C81.1445 41.812 83.9132 42.3866 86.7342 43.5359C86.2118 46.3569 85.6894 50.1182 85.167 54.8198C84.749 59.417 84.3311 64.2231 83.9132 69.2382C83.4953 74.1488 83.1818 78.9027 82.9729 83.4998C82.7639 87.9925 82.6594 91.4926 82.6594 94.0001C82.6594 94.3136 82.6594 94.7315 82.6594 95.2539C82.6594 95.6718 82.6072 96.8734 82.5027 98.8585C82.5027 100.739 82.4505 103.717 82.346 107.792C82.346 111.866 82.2937 117.613 82.1893 125.031C82.1893 124.926 82.3982 123.934 82.8161 122.053C83.3385 120.173 83.9654 117.822 84.6968 115.001C85.4282 112.18 86.264 109.15 87.2043 105.911C88.2492 102.672 89.294 99.6943 90.3388 96.9778C91.4881 94.1569 92.6373 91.8583 93.7866 90.0821C94.9359 88.2014 96.033 87.2611 97.0778 87.2611C98.2271 87.2611 99.7943 87.5223 101.779 88.0447C103.869 88.4627 105.175 89.2463 105.697 90.3955C106.115 91.6493 106.533 92.5374 106.951 93.0598C107.474 93.5822 107.892 94.0001 108.205 94.3136C108.623 94.627 108.936 94.9405 109.145 95.2539C109.459 95.5673 109.615 96.0375 109.615 96.6644C109.511 96.9778 109.25 98.0226 108.832 99.7988C108.518 101.575 108.153 103.821 107.735 106.538C107.421 109.15 107.108 112.075 106.795 115.314C106.481 118.449 106.324 121.583 106.324 124.717C106.324 128.897 106.69 132.501 107.421 135.531C108.153 138.561 109.563 140.076 111.653 140.076C113.742 140.076 115.466 139.449 116.825 138.196C118.183 136.942 119.28 135.375 120.116 133.494C121.056 131.613 121.735 129.628 122.153 127.538C122.676 125.344 123.094 123.411 123.407 121.74C123.929 119.546 124.713 118.449 125.758 118.449C126.907 118.449 127.691 118.867 128.109 119.702C128.631 120.538 128.892 121.635 128.892 122.994L128.735 125.031Z" fill="#0E8BFF"/>
<path d="M142.32 74.7234C142.32 75.4548 141.954 76.0817 141.223 76.6041C140.492 77.022 139.656 77.3354 138.715 77.5444C137.88 77.7534 137.044 77.9101 136.208 78.0146C135.372 78.1191 134.85 78.1713 134.641 78.1713C132.447 78.1713 130.252 77.5444 128.058 76.2906C125.969 75.0369 124.036 73.0517 122.26 70.3352C122.051 70.0218 121.737 69.6039 121.319 69.0815C120.901 68.5591 120.692 68.1934 120.692 67.9844C120.692 67.462 121.058 66.9918 121.79 66.5739C122.625 66.156 123.513 65.7381 124.454 65.3202C125.499 64.9022 126.439 64.5888 127.275 64.3798C128.215 64.1709 128.842 64.0664 129.155 64.0664C131.245 64.0664 133.282 64.5888 135.268 65.6336C137.357 66.6784 139.029 68.6113 140.283 71.4323C140.492 71.7457 140.857 72.3204 141.38 73.1562C142.007 73.8876 142.32 74.41 142.32 74.7234ZM158.306 122.21C157.992 124.717 157.417 127.33 156.582 130.046C155.746 132.763 154.544 135.322 152.977 137.725C151.514 140.024 149.634 141.957 147.335 143.524C145.037 144.987 142.216 145.718 138.872 145.718C136.26 145.718 133.596 144.83 130.879 143.054C128.163 141.173 126.282 138.718 125.237 135.688C124.297 132.658 123.827 129.733 123.827 126.912C123.827 126.076 123.879 124.822 123.984 123.15C124.088 121.479 124.14 119.441 124.14 117.038V99.7988C124.14 98.963 124.088 98.0749 123.984 97.1346C123.984 96.1942 123.879 95.3061 123.67 94.4703C123.566 94.0524 123.357 93.5822 123.043 93.0598C122.834 92.5374 122.73 92.1717 122.73 91.9628C122.73 91.5448 122.991 91.2314 123.513 91.0224C124.036 90.709 124.611 90.5 125.237 90.3955C125.864 90.2911 126.439 90.2388 126.961 90.2388C127.588 90.2388 127.902 90.2388 127.902 90.2388C128.215 90.2388 128.946 90.2911 130.096 90.3955C131.245 90.3955 132.447 90.5523 133.7 90.8657C134.954 91.1791 136.051 91.7016 136.992 92.4329C138.036 93.0598 138.559 94.0001 138.559 95.2539C138.663 95.5673 138.454 96.142 137.932 96.9778C137.514 97.8137 137.096 99.2764 136.678 101.366C136.574 102.202 136.469 102.985 136.365 103.717C136.26 104.344 136.156 105.075 136.051 105.911C135.947 106.747 135.842 107.792 135.738 109.045C135.633 110.195 135.529 111.71 135.424 113.59V122.994C135.424 124.665 135.477 126.389 135.581 128.165C135.685 129.837 135.894 131.404 136.208 132.867C136.626 134.225 137.253 135.375 138.089 136.315C138.924 137.151 140.021 137.569 141.38 137.569C143.365 137.569 144.932 136.994 146.081 135.845C147.231 134.695 148.119 133.703 148.746 132.867C149.895 131.3 150.783 129.367 151.41 127.068C152.037 124.665 152.611 122.21 153.134 119.702L153.447 118.135C153.761 116.568 154.701 115.784 156.268 115.784C157.835 115.784 158.619 116.881 158.619 119.076V119.859L158.306 122.21Z" fill="#0E8BFF"/>
<path d="M185.278 142.74C185.278 143.994 184.807 145.091 183.867 146.032C183.031 146.972 181.934 147.808 180.576 148.539C179.322 149.27 177.964 149.793 176.501 150.106C175.143 150.524 173.994 150.733 173.053 150.733C171.277 150.733 169.292 150.524 167.098 150.106C165.008 149.793 163.232 149.062 161.769 147.912C160.098 146.554 158.687 144.412 157.538 141.487C156.493 138.457 155.657 134.904 155.03 130.83C154.508 126.65 154.142 122.053 153.933 117.038C153.724 111.919 153.62 106.59 153.62 101.053C153.62 98.754 153.672 96.1942 153.777 93.3733C153.986 90.5523 154.195 87.6268 154.403 84.5969C154.612 81.4624 154.874 78.3803 155.187 75.3503C155.501 72.2159 155.814 69.2382 156.127 66.4172C156.441 64.4321 156.807 62.2902 157.224 59.9916C157.642 57.6931 158.06 55.499 158.478 53.4093C159.001 51.3197 159.575 49.4391 160.202 47.7674C160.829 46.0957 161.508 44.8942 162.24 44.1628C163.075 43.3269 164.172 42.8045 165.531 42.5956C166.993 42.2821 168.299 42.1254 169.449 42.1254C171.852 42.1254 173.785 42.7523 175.247 44.0061C176.71 45.2598 177.807 46.9838 178.539 49.1779C179.374 51.2675 179.897 53.7228 180.106 56.5438C180.419 59.2603 180.576 62.1857 180.576 65.3202C180.576 70.1263 180.419 75.3503 180.106 80.9923C179.792 86.5298 179.113 92.1195 178.068 97.7614C177.128 103.403 175.718 108.889 173.837 114.217C172.061 119.546 169.658 124.404 166.628 128.792C166.732 130.255 166.889 131.979 167.098 133.964C167.411 135.845 167.829 137.621 168.352 139.293C168.874 140.964 169.553 142.375 170.389 143.524C171.225 144.673 172.322 145.248 173.68 145.248C174.934 145.248 175.927 144.987 176.658 144.464C177.389 143.837 178.016 143.158 178.539 142.427C179.165 141.696 179.74 141.069 180.262 140.546C180.889 139.919 181.673 139.606 182.613 139.606C183.658 139.606 184.337 139.919 184.651 140.546C185.069 141.173 185.278 141.905 185.278 142.74ZM173.523 69.0815C173.523 68.0367 173.471 66.7829 173.367 65.3202C173.367 63.8574 173.21 62.4469 172.897 61.0887C172.688 59.626 172.374 58.4244 171.956 57.4841C171.538 56.4393 170.964 55.9169 170.232 55.9169C169.188 55.9169 168.352 57.3796 167.725 60.3051C167.098 63.2305 166.575 67.0963 166.158 71.9024C165.844 76.6041 165.583 81.9848 165.374 88.0447C165.269 94.0001 165.217 100.06 165.217 106.224C165.217 108.001 165.217 109.881 165.217 111.866C165.217 113.747 165.322 115.419 165.531 116.881C168.979 108.627 171.173 100.635 172.113 92.9031C173.053 85.1715 173.523 77.231 173.523 69.0815Z" fill="#0E8BFF"/>
<path d="M216.652 142.74C216.652 143.994 216.182 145.091 215.242 146.032C214.406 146.972 213.309 147.808 211.951 148.539C210.697 149.27 209.339 149.793 207.876 150.106C206.518 150.524 205.368 150.733 204.428 150.733C202.652 150.733 200.667 150.524 198.473 150.106C196.383 149.793 194.607 149.062 193.144 147.912C191.473 146.554 190.062 144.412 188.913 141.487C187.868 138.457 187.032 134.904 186.405 130.83C185.883 126.65 185.517 122.053 185.308 117.038C185.099 111.919 184.995 106.59 184.995 101.053C184.995 98.754 185.047 96.1942 185.151 93.3733C185.36 90.5523 185.569 87.6268 185.778 84.5969C185.987 81.4624 186.248 78.3803 186.562 75.3503C186.875 72.2159 187.189 69.2382 187.502 66.4172C187.816 64.4321 188.181 62.2902 188.599 59.9916C189.017 57.6931 189.435 55.499 189.853 53.4093C190.375 51.3197 190.95 49.4391 191.577 47.7674C192.204 46.0957 192.883 44.8942 193.614 44.1628C194.45 43.3269 195.547 42.8045 196.906 42.5956C198.368 42.2821 199.674 42.1254 200.824 42.1254C203.227 42.1254 205.16 42.7523 206.622 44.0061C208.085 45.2598 209.182 46.9838 209.913 49.1779C210.749 51.2675 211.272 53.7228 211.481 56.5438C211.794 59.2603 211.951 62.1857 211.951 65.3202C211.951 70.1263 211.794 75.3503 211.481 80.9923C211.167 86.5298 210.488 92.1195 209.443 97.7614C208.503 103.403 207.092 108.889 205.212 114.217C203.436 119.546 201.033 124.404 198.003 128.792C198.107 130.255 198.264 131.979 198.473 133.964C198.786 135.845 199.204 137.621 199.727 139.293C200.249 140.964 200.928 142.375 201.764 143.524C202.6 144.673 203.697 145.248 205.055 145.248C206.309 145.248 207.301 144.987 208.033 144.464C208.764 143.837 209.391 143.158 209.913 142.427C210.54 141.696 211.115 141.069 211.637 140.546C212.264 139.919 213.048 139.606 213.988 139.606C215.033 139.606 215.712 139.919 216.026 140.546C216.443 141.173 216.652 141.905 216.652 142.74ZM204.898 69.0815C204.898 68.0367 204.846 66.7829 204.742 65.3202C204.742 63.8574 204.585 62.4469 204.271 61.0887C204.062 59.626 203.749 58.4244 203.331 57.4841C202.913 56.4393 202.339 55.9169 201.607 55.9169C200.562 55.9169 199.727 57.3796 199.1 60.3051C198.473 63.2305 197.95 67.0963 197.532 71.9024C197.219 76.6041 196.958 81.9848 196.749 88.0447C196.644 94.0001 196.592 100.06 196.592 106.224C196.592 108.001 196.592 109.881 196.592 111.866C196.592 113.747 196.697 115.419 196.906 116.881C200.353 108.627 202.547 100.635 203.488 92.9031C204.428 85.1715 204.898 77.231 204.898 69.0815Z" fill="#0E8BFF"/>
<path d="M253.826 137.569C253.826 140.076 252.99 142.009 251.318 143.367C249.647 144.726 247.714 145.718 245.52 146.345C243.43 146.972 241.288 147.338 239.094 147.442C237.005 147.651 235.49 147.756 234.549 147.756C233.086 147.756 231.258 147.599 229.064 147.285C226.974 146.972 224.885 146.502 222.795 145.875C220.81 145.143 219.086 144.151 217.623 142.897C216.265 141.643 215.586 140.076 215.586 138.196C215.586 137.046 216.004 136.263 216.84 135.845C217.78 135.322 218.668 135.061 219.504 135.061C220.653 135.061 221.75 135.479 222.795 136.315C223.944 137.151 225.094 138.039 226.243 138.979C227.497 139.919 228.855 140.808 230.318 141.643C231.781 142.479 233.452 142.897 235.333 142.897C236.169 142.897 237.266 142.636 238.624 142.114C240.087 141.487 240.818 140.442 240.818 138.979C240.818 137.516 240.191 136.106 238.937 134.748C237.788 133.389 236.273 131.979 234.393 130.516C232.616 129.053 230.683 127.538 228.594 125.971C226.504 124.404 224.519 122.732 222.638 120.956C220.862 119.076 219.347 117.038 218.094 114.844C216.944 112.65 216.37 110.247 216.37 107.635C216.37 103.978 217.519 100.896 219.817 98.3883C222.22 95.8808 224.989 93.8957 228.124 92.4329C231.363 90.9702 234.654 89.9254 237.997 89.2985C241.34 88.6716 243.953 88.3582 245.833 88.3582C247.609 88.3582 249.386 88.7239 251.162 89.4552C252.938 90.1866 253.826 91.5971 253.826 93.6867C253.826 94.3136 253.669 95.2539 253.356 96.5077C253.147 97.657 252.729 98.8063 252.102 99.9555C251.58 101.105 250.848 102.15 249.908 103.09C248.968 103.926 247.766 104.344 246.303 104.344C245.885 104.344 245.467 104.187 245.05 103.874C244.632 103.456 244.161 103.038 243.639 102.62C243.117 102.097 242.542 101.679 241.915 101.366C241.393 100.948 240.766 100.739 240.034 100.739C236.378 100.739 233.818 101.836 232.355 104.03C230.892 106.12 230.161 108.366 230.161 110.769C230.161 112.859 231.363 115.053 233.766 117.352C236.273 119.65 238.99 121.949 241.915 124.247C244.945 126.546 247.662 128.844 250.065 131.143C252.572 133.337 253.826 135.479 253.826 137.569Z" fill="#0E8BFF"/>
<path d="M341.603 73.7833C341.603 76.7087 340.767 79.9476 339.096 83.5C337.528 86.9478 335.387 90.2912 332.67 93.5301C330.058 96.769 327.08 99.7467 323.737 102.463C320.393 105.075 317.05 107.008 313.707 108.262C316.528 109.098 319.14 110.143 321.543 111.396C324.05 112.546 326.506 114.113 328.909 116.098C329.536 116.62 330.215 117.613 330.946 119.076C331.782 120.434 332.513 121.949 333.14 123.621C333.872 125.188 334.446 126.755 334.864 128.322C335.282 129.889 335.491 131.143 335.491 132.084C335.491 135.009 334.237 137.621 331.73 139.92C329.327 142.114 326.558 143.942 323.423 145.405C320.289 146.763 317.207 147.808 314.177 148.539C311.251 149.271 309.214 149.636 308.065 149.636H297.878C296.833 149.636 295.214 149.166 293.02 148.226C290.93 147.39 288.736 146.397 286.437 145.248C284.243 143.994 282.258 142.793 280.482 141.644C278.706 140.494 277.609 139.658 277.191 139.136C277.504 138.509 277.765 137.151 277.974 135.061C278.183 132.867 278.34 130.203 278.444 127.068C278.549 123.83 278.601 120.277 278.601 116.411C278.706 112.441 278.758 108.419 278.758 104.344C278.758 100.269 278.706 96.6123 278.601 93.3734C278.601 90.03 278.601 86.9478 278.601 84.1269C278.601 81.2014 278.549 78.4326 278.444 75.8206C278.444 73.1041 278.444 70.3354 278.444 67.5144C278.444 65.0069 278.653 63.2829 279.071 62.3426C279.594 61.4023 279.803 60.9321 279.698 60.9321C278.027 60.9321 275.467 61.559 272.019 62.8128C268.571 64.0665 265.123 65.6338 261.675 67.5144C258.332 69.3951 255.406 71.4847 252.899 73.7833C250.287 75.9774 248.981 78.067 248.981 80.0521C248.981 82.4552 249.242 84.4403 249.764 86.0075C250.287 87.5747 250.548 88.4628 250.548 88.6718C250.548 90.4479 250.182 91.9629 249.451 93.2167C248.72 94.366 247.57 94.9406 246.003 94.9406C244.749 94.9406 243.757 94.5227 243.025 93.6869C242.294 92.7465 241.772 91.754 241.458 90.7091C241.04 89.5599 240.779 88.4628 240.675 87.418C240.57 86.3732 240.518 85.6941 240.518 85.3806C240.518 81.3059 241.719 77.5968 244.123 74.2534C246.526 70.91 249.66 67.9846 253.526 65.477C257.392 62.865 261.78 60.6709 266.69 58.8947C271.705 57.0141 276.825 55.4991 282.049 54.3498C287.273 53.0961 292.34 52.208 297.251 51.6856C302.266 51.0587 306.707 50.7452 310.572 50.7452H311.826C316.528 50.8497 320.916 51.79 324.991 53.5662C329.17 55.2379 332.618 57.7977 335.334 61.2456C335.543 61.4545 335.648 61.6112 335.648 61.7157C335.752 61.8202 335.857 61.9247 335.961 62.0292C337.319 63.5964 338.364 64.8501 339.096 65.7905C339.827 66.6263 340.349 67.4622 340.663 68.298C341.081 69.0294 341.342 69.813 341.446 70.6488C341.551 71.4847 341.603 72.5295 341.603 73.7833ZM329.536 70.6488C329.536 66.0517 327.289 62.9695 322.797 61.4023C318.304 59.7306 311.722 58.8947 303.05 58.8947H297.878C296.52 58.8947 295.109 58.8947 293.646 58.8947C292.288 58.8947 290.878 58.9992 289.415 59.2082C289.624 59.5216 289.885 59.8351 290.199 60.1485C290.616 60.4619 290.982 60.9844 291.296 61.7157C291.609 62.3426 291.87 63.3352 292.079 64.6934C292.288 65.9472 292.393 67.7234 292.393 70.0219V100.896C292.393 101.732 292.602 102.307 293.02 102.62C293.542 102.829 295.266 102.933 298.191 102.933C300.803 102.933 303.886 102.045 307.438 100.269C311.095 98.3885 314.543 95.9332 317.781 92.9032C321.02 89.8733 323.789 86.4254 326.088 82.5596C328.386 78.6939 329.536 74.7236 329.536 70.6488ZM322.483 127.068C322.483 125.501 321.7 123.83 320.132 122.053C318.565 120.277 316.737 118.606 314.647 117.038C312.557 115.471 310.52 114.217 308.535 113.277C306.55 112.232 305.087 111.71 304.147 111.71C301.744 111.71 299.393 111.867 297.094 112.18C294.796 112.493 293.542 112.755 293.333 112.964C293.229 113.068 293.124 113.643 293.02 114.687C292.915 115.732 292.811 117.091 292.706 118.762C292.602 120.329 292.497 122.053 292.393 123.934C292.393 125.815 292.393 127.643 292.393 129.419C292.393 130.464 292.497 131.666 292.706 133.024C292.915 134.278 293.333 135.531 293.96 136.785C294.587 137.934 295.423 138.927 296.467 139.763C297.617 140.599 299.079 141.017 300.856 141.017L303.99 140.703C305.139 140.703 306.707 140.442 308.692 139.92C310.781 139.293 312.819 138.405 314.804 137.255C316.893 136.106 318.67 134.696 320.132 133.024C321.7 131.248 322.483 129.263 322.483 127.068Z" fill="#136CD5"/>
<path d="M405.69 130.203C405.481 131.666 404.958 133.39 404.123 135.375C403.287 137.36 402.19 139.293 400.831 141.173C399.578 142.95 398.063 144.465 396.287 145.718C394.615 146.972 392.734 147.599 390.645 147.599C387.51 147.599 384.741 146.397 382.338 143.994C380.04 141.591 378.629 138.196 378.107 133.807C377.48 135.479 376.749 137.412 375.913 139.606C375.077 141.8 374.032 143.838 372.778 145.718C371.525 147.599 370.062 149.166 368.39 150.42C366.823 151.778 364.942 152.457 362.748 152.457C362.121 152.457 361.651 152.405 361.338 152.301C361.024 152.196 360.659 152.039 360.241 151.83C359.927 151.726 359.509 151.621 358.987 151.517C358.569 151.412 357.942 151.36 357.106 151.36C354.599 151.36 352.457 150.524 350.681 148.853C349.009 147.286 347.651 145.248 346.606 142.741C345.561 140.233 344.778 137.517 344.255 134.591C343.837 131.561 343.628 128.74 343.628 126.128C343.628 119.859 343.942 113.904 344.569 108.262C345.3 102.62 346.449 97.6571 348.016 93.3734C349.584 88.9852 351.621 85.5373 354.129 83.0298C356.636 80.4178 359.666 79.1118 363.218 79.1118C365.308 79.1118 366.875 79.3207 367.92 79.7387C369.069 80.0521 370.114 80.47 371.054 80.9924C371.995 81.4104 372.987 81.8805 374.032 82.4029C375.181 82.9253 376.749 83.3432 378.734 83.6567C380.928 84.9105 382.443 86.4254 383.279 88.2016C384.219 89.8733 384.794 91.7017 385.003 93.6869C385.316 95.672 385.421 97.7616 385.316 99.9557C385.212 102.045 385.316 104.135 385.63 106.225C385.63 106.329 385.839 106.486 386.256 106.695C386.779 106.904 387.353 107.165 387.98 107.478C388.607 107.687 389.13 108.053 389.548 108.575C390.07 108.993 390.331 109.568 390.331 110.299V110.926C389.286 113.643 388.659 116.046 388.451 118.135C388.242 120.225 388.137 122.733 388.137 125.658C388.137 127.121 388.189 128.74 388.294 130.516C388.503 132.188 388.764 133.807 389.077 135.375C389.495 136.837 390.07 138.091 390.801 139.136C391.533 140.076 392.473 140.546 393.622 140.546C394.876 140.546 395.973 139.92 396.913 138.666C397.958 137.412 398.794 136.002 399.421 134.434C400.152 132.763 400.727 131.091 401.145 129.419C401.667 127.748 401.981 126.494 402.085 125.658C402.294 124.404 402.817 123.777 403.652 123.777C404.175 123.777 404.645 124.091 405.063 124.718C405.585 125.24 405.847 126.233 405.847 127.695C405.847 128.113 405.847 128.531 405.847 128.949C405.847 129.263 405.794 129.68 405.69 130.203ZM376.696 104.814C376.696 103.665 376.592 102.307 376.383 100.739C376.174 99.1721 375.808 97.7094 375.286 96.3511C374.764 94.9929 373.98 93.8436 372.935 92.9032C371.89 91.9629 370.48 91.4928 368.704 91.4928C365.778 91.4928 363.375 92.851 361.494 95.5675C359.718 98.1795 358.308 101.314 357.263 104.971C356.218 108.523 355.539 112.232 355.226 116.098C354.912 119.859 354.755 122.837 354.755 125.031C354.755 126.703 354.808 128.74 354.912 131.143C355.121 133.442 355.435 135.636 355.853 137.726C356.27 139.815 356.845 141.591 357.576 143.054C358.412 144.517 359.457 145.248 360.711 145.248C363.741 145.248 366.039 144.099 367.607 141.8C369.278 139.397 370.532 136.472 371.368 133.024C372.204 129.472 372.778 125.71 373.092 121.74C373.51 117.665 373.875 113.956 374.189 110.613C374.398 108.837 374.868 107.74 375.599 107.322C376.331 106.799 376.696 106.434 376.696 106.225V104.814Z" fill="#136CD5"/>
<path fill-rule="evenodd" clip-rule="evenodd" d="M487.784 2.80192C488.999 3.24586 491.115 4.15128 492.486 4.81357L494.978 6.01866L481.678 10.0193C474.363 12.22 466.747 14.7198 464.753 15.5752C448.217 22.6654 439.818 32.1539 433.01 51.4337C431.081 56.8957 430.972 57.7908 432.606 54.7455C438.012 44.6706 447.083 36.801 456.887 33.682C460.201 32.6279 464.338 31.941 467.901 31.8532C471.341 31.7688 480.065 33.7333 483.445 35.354C492.653 39.7691 500.383 47.02 505.921 56.4374C508.037 60.035 511.313 67.1134 510.976 67.3586C510.915 67.403 506.678 65.0814 501.561 62.1988C491.378 56.4628 487.047 54.2527 481.915 52.1729C478.476 50.7788 471.42 49.0912 467.814 48.7997C459.742 48.1476 450.357 50.8258 440.662 56.5466L439.03 57.5099L441.515 58.0491C449.924 59.8751 455.929 69.5785 455.702 80.9729C455.598 86.1694 455.6 86.1702 451.639 78.9603C447.801 71.9736 445.063 68.3111 442.215 66.3525C439.891 64.7547 436.519 63.5032 433.747 63.2104L431.487 62.9717L432.736 66.3313C439.592 84.778 443.49 111.501 443.732 141.723C443.845 155.697 443.43 160.232 439.973 182.828C439.177 188.029 438.07 193.596 437.755 195.711L436.818 201.266L435.814 204.613L433.673 206.888L430.192 201.467L427.916 199.326L424.57 198.322L420.152 198.456L412.688 199.788L412.355 196.482L415.399 187.547L420.451 171.919L425.47 155.186C430.934 136.539 430.714 113.023 430.519 103.08C430.08 80.6841 430.351 97.5586 430.061 80.0546C429.472 72.4693 428.281 64.7118 427.613 64.1169C427.334 63.8678 426.334 63.2781 425.39 62.8067L423.674 61.9492L421.483 63.093C418.166 64.8253 414.544 67.7762 412.754 70.2055C409.962 73.9928 404.571 75.456 402.575 85.0556V86.1892C401.725 81.5185 401.725 82.9178 402.575 77.0247C403.288 72.6528 404.213 70.3045 406.55 66.936C408.433 64.222 412.952 60.7784 415.493 60.1222C416.399 59.8883 417.166 59.5727 417.199 59.4204C417.353 58.6892 407.047 55.8915 402.651 55.4713C394.949 54.7348 388.433 55.9112 380.981 59.3834C374.33 62.4827 369.137 66.0675 355.364 77.0695C351.062 80.5058 347.51 83.262 347.471 83.1939C347.232 82.7808 350.161 74.4133 351.758 70.9477C360.162 52.7119 375.794 40.2449 391.639 39.1409C405.151 38.2 418.129 45.2771 425.317 57.5074C426.35 59.2631 427.082 60.226 426.945 59.6479C426.615 58.2535 421.321 49.9746 418.072 45.7732C413.203 39.4765 408.662 35.3965 402.838 32.0873C400.565 30.7965 398.979 30.2394 394.143 29.0359C385.185 26.8062 380.45 26.7761 361.068 28.8246C355.417 29.4216 350.76 29.8513 350.718 29.7794C350.677 29.7071 351.895 28.4556 353.424 26.9984C366.885 14.1786 384.415 8.68023 399.243 12.6271C411.366 15.8545 420.407 24.4501 425.123 37.2348L426.127 39.9585L426.389 37.573C426.931 32.6178 430.18 24.5249 433.762 19.2071C441.57 7.61749 455.391 0.284327 469.946 0.00762744C475.799 -0.103203 482.855 1.00175 487.784 2.80192Z" fill="#136CD5"/>
<path d="M436.6 200.624C436.812 207.577 431.346 213.385 424.393 213.596C417.44 213.807 411.633 208.342 411.421 201.389C411.21 194.436 416.675 188.628 423.628 188.417C430.581 188.206 436.389 193.671 436.6 200.624Z" fill="#136CD5"/>
<path d="M435.304 130.494C433.215 128.405 434.375 135.741 433.016 131.457C432.703 132.084 431.629 131.203 431.107 133.293C430.689 135.382 432.047 133.793 431.107 136.091C430.166 138.285 424.312 146.659 422.744 148.54C421.282 150.316 419.401 151.204 417.102 151.204C410.416 151.204 405.818 149.271 403.311 145.405C400.803 141.539 399.341 135.845 398.923 128.322V90.5527C399.132 89.8213 399.236 89.2989 399.236 88.9855C399.341 88.672 399.811 88.5153 400.647 88.5153C401.169 88.5153 402.057 88.6198 403.311 88.8288C404.669 89.0377 406.027 89.3512 407.386 89.7691C408.744 90.0825 409.945 90.5527 410.99 91.1796C412.14 91.8065 412.714 92.5378 412.714 93.3737V121.113C412.714 122.994 412.714 125.084 412.714 127.382C412.819 129.681 412.975 131.823 413.184 133.808C413.498 135.688 413.968 137.308 414.595 138.666C415.222 139.92 416.11 140.547 417.259 140.547C420.289 140.547 423.838 137.953 425.509 131.894C427.181 125.729 430.898 115.673 431.107 102.508C433.681 102.553 434.543 103.661 432.506 102.508C434.543 102.508 433.016 101.105 433.016 99.956C438.378 101.355 431.554 97.1201 433.016 96.9111C434.584 96.7021 434.051 95.5118 435.304 95.5118C438.439 95.5118 433.842 96.2842 435.304 96.9111C436.767 97.538 436.704 96.9111 435.304 99.956C435.095 101.837 436.913 102.758 436.704 103.908C436.599 104.952 436.808 104.367 436.704 105.307C433.016 106.213 436.808 108.158 436.704 109.203C436.704 110.143 436.704 113.221 436.704 115.102C436.704 117.505 435.095 120.886 435.304 123.498C434.782 121.304 435.513 126.11 435.304 123.498C434.573 122.035 435.827 125.692 435.304 123.498C434.051 123.498 436.14 124.856 435.304 123.498C436.454 123.498 433.278 126.923 433.905 126.296C433.383 127.132 434.532 125.565 433.905 126.296C433.383 126.923 434.428 125.46 433.905 126.296C432.965 126.296 434.428 125.565 433.905 126.296C433.487 125.669 434.741 126.296 433.905 126.296C433.905 125.774 434.323 126.819 433.905 126.296C434.95 124.938 433.905 128.281 433.905 126.296C435.368 125.46 432.965 127.655 433.905 126.296C435.368 125.878 432.547 127.132 433.905 126.296C434.845 126.296 432.442 126.61 433.905 126.296C435.159 126.714 432.129 126.296 433.905 126.296C435.159 127.132 432.651 125.878 433.905 126.296L435.304 130.494Z" fill="#136CD5"/>
</svg>
